<svg width="39" height="39" viewBox="0 0 39 39" fill="none" xmlns="http://www.w3.org/2000/svg">
<circle cx="19.5" cy="19.5" r="19.5" fill="#FF8A00" fill-opacity="0.15"/>
<path d="M26.5001 18.1667H24.0001V12.3333C24.0001 12.1123 23.9123 11.9004 23.756 11.7441C23.5997 11.5878 23.3878 11.5 23.1667 11.5H11.5001C11.2791 11.5 11.0671 11.5878 10.9108 11.7441C10.7545 11.9004 10.6667 12.1123 10.6667 12.3333V24C10.6667 25.3783 11.7884 26.5 13.1667 26.5H24.8334C26.2117 26.5 27.3334 25.3783 27.3334 24V19C27.3334 18.779 27.2456 18.567 27.0893 18.4107C26.9331 18.2545 26.7211 18.1667 26.5001 18.1667ZM13.1667 24.8333C12.9457 24.8333 12.7338 24.7455 12.5775 24.5893C12.4212 24.433 12.3334 24.221 12.3334 24V13.1667H22.3334V24C22.3334 24.2925 22.3842 24.5733 22.4759 24.8333H13.1667ZM25.6667 24C25.6667 24.221 25.579 24.433 25.4227 24.5893C25.2664 24.7455 25.0544 24.8333 24.8334 24.8333C24.6124 24.8333 24.4004 24.7455 24.2442 24.5893C24.0879 24.433 24.0001 24.221 24.0001 24V19.8333H25.6667V24Z" fill="#FF8A00"/>
<path d="M14 14.8335H20.6667V16.5002H14V14.8335ZM14 18.1668H20.6667V19.8335H14V18.1668ZM18.1667 21.5002H20.6667V23.1668H18.1667V21.5002Z" fill="#FF8A00"/>
</svg>
