<svg width="94" height="114" viewBox="0 0 94 114" fill="none" xmlns="http://www.w3.org/2000/svg">
<path d="M46.2929 72.7071C46.6834 73.0976 47.3166 73.0976 47.7071 72.7071L54.0711 66.3431C54.4616 65.9526 54.4616 65.3195 54.0711 64.9289C53.6805 64.5384 53.0474 64.5384 52.6569 64.9289L47 70.5858L41.3431 64.9289C40.9526 64.5384 40.3195 64.5384 39.9289 64.9289C39.5384 65.3195 39.5384 65.9526 39.9289 66.3431L46.2929 72.7071ZM46 4.37114e-08L46 72L48 72L48 -4.37114e-08L46 4.37114e-08Z" fill="black"/>
<path d="M4.912 110.096C4.08 110.096 3.28 109.963 2.512 109.696C1.75467 109.429 1.168 109.077 0.752 108.64L1.216 107.728C1.62133 108.133 2.16 108.464 2.832 108.72C3.504 108.965 4.19733 109.088 4.912 109.088C5.91467 109.088 6.66667 108.907 7.168 108.544C7.66933 108.171 7.92 107.691 7.92 107.104C7.92 106.656 7.78133 106.299 7.504 106.032C7.23733 105.765 6.90667 105.563 6.512 105.424C6.11733 105.275 5.568 105.115 4.864 104.944C4.02133 104.731 3.34933 104.528 2.848 104.336C2.34667 104.133 1.91467 103.829 1.552 103.424C1.2 103.019 1.024 102.469 1.024 101.776C1.024 101.211 1.17333 100.699 1.472 100.24C1.77067 99.7707 2.22933 99.3973 2.848 99.12C3.46667 98.8427 4.23467 98.704 5.152 98.704C5.792 98.704 6.416 98.7947 7.024 98.976C7.64267 99.1467 8.176 99.3867 8.624 99.696L8.224 100.64C7.75467 100.331 7.25333 100.101 6.72 99.952C6.18667 99.792 5.664 99.712 5.152 99.712C4.17067 99.712 3.42933 99.904 2.928 100.288C2.43733 100.661 2.192 101.147 2.192 101.744C2.192 102.192 2.32533 102.555 2.592 102.832C2.86933 103.099 3.21067 103.307 3.616 103.456C4.032 103.595 4.58667 103.749 5.28 103.92C6.10133 104.123 6.76267 104.325 7.264 104.528C7.776 104.72 8.208 105.019 8.56 105.424C8.912 105.819 9.088 106.357 9.088 107.04C9.088 107.605 8.93333 108.123 8.624 108.592C8.32533 109.051 7.86133 109.419 7.232 109.696C6.60267 109.963 5.82933 110.096 4.912 110.096ZM14.9158 110.08C14.0838 110.08 13.3371 109.899 12.6758 109.536C12.0251 109.173 11.5131 108.667 11.1398 108.016C10.7664 107.355 10.5798 106.613 10.5798 105.792C10.5798 104.971 10.7664 104.235 11.1398 103.584C11.5131 102.933 12.0251 102.427 12.6758 102.064C13.3371 101.701 14.0838 101.52 14.9158 101.52C15.6411 101.52 16.2864 101.664 16.8518 101.952C17.4278 102.229 17.8811 102.64 18.2118 103.184L17.3638 103.76C17.0864 103.344 16.7344 103.035 16.3078 102.832C15.8811 102.619 15.4171 102.512 14.9158 102.512C14.3078 102.512 13.7584 102.651 13.2678 102.928C12.7878 103.195 12.4091 103.579 12.1318 104.08C11.8651 104.581 11.7318 105.152 11.7318 105.792C11.7318 106.443 11.8651 107.019 12.1318 107.52C12.4091 108.011 12.7878 108.395 13.2678 108.672C13.7584 108.939 14.3078 109.072 14.9158 109.072C15.4171 109.072 15.8811 108.971 16.3078 108.768C16.7344 108.565 17.0864 108.256 17.3638 107.84L18.2118 108.416C17.8811 108.96 17.4278 109.376 16.8518 109.664C16.2758 109.941 15.6304 110.08 14.9158 110.08ZM21.5314 103.232C21.798 102.667 22.1927 102.24 22.7154 101.952C23.2487 101.664 23.9047 101.52 24.6834 101.52V102.624L24.4114 102.608C23.526 102.608 22.8327 102.88 22.3314 103.424C21.83 103.968 21.5794 104.731 21.5794 105.712V110H20.4434V101.584H21.5314V103.232ZM30.1021 110.08C29.2915 110.08 28.5608 109.899 27.9101 109.536C27.2595 109.163 26.7475 108.651 26.3741 108C26.0008 107.349 25.8141 106.613 25.8141 105.792C25.8141 104.971 26.0008 104.235 26.3741 103.584C26.7475 102.933 27.2595 102.427 27.9101 102.064C28.5608 101.701 29.2915 101.52 30.1021 101.52C30.9128 101.52 31.6435 101.701 32.2941 102.064C32.9448 102.427 33.4515 102.933 33.8141 103.584C34.1875 104.235 34.3741 104.971 34.3741 105.792C34.3741 106.613 34.1875 107.349 33.8141 108C33.4515 108.651 32.9448 109.163 32.2941 109.536C31.6435 109.899 30.9128 110.08 30.1021 110.08ZM30.1021 109.072C30.6995 109.072 31.2328 108.939 31.7021 108.672C32.1821 108.395 32.5555 108.005 32.8221 107.504C33.0888 107.003 33.2221 106.432 33.2221 105.792C33.2221 105.152 33.0888 104.581 32.8221 104.08C32.5555 103.579 32.1821 103.195 31.7021 102.928C31.2328 102.651 30.6995 102.512 30.1021 102.512C29.5048 102.512 28.9661 102.651 28.4861 102.928C28.0168 103.195 27.6435 103.579 27.3661 104.08C27.0995 104.581 26.9661 105.152 26.9661 105.792C26.9661 106.432 27.0995 107.003 27.3661 107.504C27.6435 108.005 28.0168 108.395 28.4861 108.672C28.9661 108.939 29.5048 109.072 30.1021 109.072ZM36.6934 98.128H37.8294V110H36.6934V98.128ZM40.9903 98.128H42.1263V110H40.9903V98.128ZM57.1546 98.128V110H56.0666V108.336C55.7253 108.901 55.272 109.333 54.7066 109.632C54.152 109.931 53.5226 110.08 52.8186 110.08C52.0293 110.08 51.3146 109.899 50.6746 109.536C50.0346 109.173 49.5333 108.667 49.1706 108.016C48.808 107.365 48.6266 106.624 48.6266 105.792C48.6266 104.96 48.808 104.219 49.1706 103.568C49.5333 102.917 50.0346 102.416 50.6746 102.064C51.3146 101.701 52.0293 101.52 52.8186 101.52C53.5013 101.52 54.1146 101.664 54.6586 101.952C55.2133 102.229 55.6666 102.64 56.0186 103.184V98.128H57.1546ZM52.9146 109.072C53.5013 109.072 54.0293 108.939 54.4986 108.672C54.9786 108.395 55.352 108.005 55.6186 107.504C55.896 107.003 56.0346 106.432 56.0346 105.792C56.0346 105.152 55.896 104.581 55.6186 104.08C55.352 103.579 54.9786 103.195 54.4986 102.928C54.0293 102.651 53.5013 102.512 52.9146 102.512C52.3173 102.512 51.7786 102.651 51.2986 102.928C50.8293 103.195 50.456 103.579 50.1786 104.08C49.912 104.581 49.7786 105.152 49.7786 105.792C49.7786 106.432 49.912 107.003 50.1786 107.504C50.456 108.005 50.8293 108.395 51.2986 108.672C51.7786 108.939 52.3173 109.072 52.9146 109.072ZM63.7584 110.08C62.9477 110.08 62.217 109.899 61.5664 109.536C60.9157 109.163 60.4037 108.651 60.0304 108C59.657 107.349 59.4704 106.613 59.4704 105.792C59.4704 104.971 59.657 104.235 60.0304 103.584C60.4037 102.933 60.9157 102.427 61.5664 102.064C62.217 101.701 62.9477 101.52 63.7584 101.52C64.569 101.52 65.2997 101.701 65.9504 102.064C66.601 102.427 67.1077 102.933 67.4704 103.584C67.8437 104.235 68.0304 104.971 68.0304 105.792C68.0304 106.613 67.8437 107.349 67.4704 108C67.1077 108.651 66.601 109.163 65.9504 109.536C65.2997 109.899 64.569 110.08 63.7584 110.08ZM63.7584 109.072C64.3557 109.072 64.889 108.939 65.3584 108.672C65.8384 108.395 66.2117 108.005 66.4784 107.504C66.745 107.003 66.8784 106.432 66.8784 105.792C66.8784 105.152 66.745 104.581 66.4784 104.08C66.2117 103.579 65.8384 103.195 65.3584 102.928C64.889 102.651 64.3557 102.512 63.7584 102.512C63.161 102.512 62.6224 102.651 62.1424 102.928C61.673 103.195 61.2997 103.579 61.0224 104.08C60.7557 104.581 60.6224 105.152 60.6224 105.792C60.6224 106.432 60.7557 107.003 61.0224 107.504C61.2997 108.005 61.673 108.395 62.1424 108.672C62.6224 108.939 63.161 109.072 63.7584 109.072ZM82.4673 101.584L79.2833 110H78.2113L75.5553 103.104L72.8993 110H71.8273L68.6593 101.584H69.7473L72.3873 108.736L75.0913 101.584H76.0673L78.7553 108.736L81.4273 101.584H82.4673ZM88.4658 101.52C89.5218 101.52 90.3591 101.829 90.9778 102.448C91.6071 103.056 91.9218 103.947 91.9218 105.12V110H90.7858V105.232C90.7858 104.357 90.5671 103.691 90.1298 103.232C89.6924 102.773 89.0684 102.544 88.2578 102.544C87.3511 102.544 86.6311 102.816 86.0978 103.36C85.5751 103.893 85.3138 104.635 85.3138 105.584V110H84.1778V101.584H85.2658V103.136C85.5751 102.624 86.0018 102.229 86.5458 101.952C87.1004 101.664 87.7404 101.52 88.4658 101.52Z" fill="#333333"/>
</svg>
