<svg width="70" height="24" viewBox="0 0 70 24" fill="none" xmlns="http://www.w3.org/2000/svg">
<path d="M15.576 11.224C17.24 10.2 18.2 8.632 18.2 6.616C18.2 2.68 14.68 0.216 9.528 0.216C4.44 0.216 0.92 2.68 0.92 6.616C0.92 8.632 1.848 10.2 3.512 11.224C1.368 12.312 0.12 14.104 0.12 16.504C0.12 20.728 3.864 23.384 9.528 23.384C15.224 23.384 19 20.728 19 16.504C19 14.104 17.752 12.312 15.576 11.224ZM9.528 4.024C11.64 4.024 13.048 5.08 13.048 6.84C13.048 8.536 11.672 9.592 9.528 9.592C7.416 9.592 6.072 8.536 6.072 6.84C6.072 5.08 7.448 4.024 9.528 4.024ZM9.528 19.576C6.968 19.576 5.368 18.328 5.368 16.344C5.368 14.36 6.968 13.144 9.528 13.144C12.12 13.144 13.752 14.36 13.752 16.344C13.752 18.328 12.12 19.576 9.528 19.576ZM30.973 23.384C36.509 23.384 40.573 19.192 40.573 11.8C40.573 4.408 36.509 0.216 30.973 0.216C25.469 0.216 21.373 4.408 21.373 11.8C21.373 19.192 25.469 23.384 30.973 23.384ZM30.973 19C28.413 19 26.621 16.888 26.621 11.8C26.621 6.712 28.413 4.6 30.973 4.6C33.565 4.6 35.357 6.712 35.357 11.8C35.357 16.888 33.565 19 30.973 19ZM48.2758 12.696C51.5398 12.696 53.8118 10.328 53.8118 6.52C53.8118 2.712 51.5398 0.344 48.2758 0.344C45.0118 0.344 42.7078 2.744 42.7078 6.52C42.7078 10.296 45.0118 12.696 48.2758 12.696ZM46.3238 23H50.1318L65.4278 0.599998H61.6198L46.3238 23ZM48.2758 10.072C46.8998 10.072 45.9398 8.888 45.9398 6.52C45.9398 4.152 46.8998 2.968 48.2758 2.968C49.6838 2.968 50.6118 4.12 50.6118 6.52C50.6118 8.92 49.6838 10.072 48.2758 10.072ZM63.4758 23.256C66.7398 23.256 69.0438 20.856 69.0438 17.08C69.0438 13.304 66.7398 10.904 63.4758 10.904C60.2438 10.904 57.9398 13.304 57.9398 17.08C57.9398 20.856 60.2438 23.256 63.4758 23.256ZM63.4758 20.632C62.0998 20.632 61.1398 19.48 61.1398 17.08C61.1398 14.68 62.0998 13.528 63.4758 13.528C64.8838 13.528 65.8118 14.712 65.8118 17.08C65.8118 19.448 64.8838 20.632 63.4758 20.632Z" fill="#005ECD"/>
</svg>
