<svg width="102" height="24" viewBox="0 0 102 24" fill="none" xmlns="http://www.w3.org/2000/svg">
<path d="M8.928 9.016H7.104L7.456 4.76H16.8V0.599998H3.136L1.984 13.208H7.712C11.776 13.208 12.928 14.36 12.928 16.12C12.928 17.944 11.328 19.032 8.736 19.032C6.4 19.032 4.064 18.296 2.368 17.016L0.32 20.984C2.496 22.52 5.76 23.384 8.864 23.384C15.264 23.384 18.176 19.928 18.176 15.96C18.176 11.992 15.552 9.016 8.928 9.016ZM29.8793 23.384C35.4153 23.384 39.4793 19.192 39.4793 11.8C39.4793 4.408 35.4153 0.216 29.8793 0.216C24.3753 0.216 20.2793 4.408 20.2793 11.8C20.2793 19.192 24.3753 23.384 29.8793 23.384ZM29.8793 19C27.3193 19 25.5273 16.888 25.5273 11.8C25.5273 6.712 27.3193 4.6 29.8793 4.6C32.4713 4.6 34.2633 6.712 34.2633 11.8C34.2633 16.888 32.4713 19 29.8793 19ZM51.598 23.384C57.134 23.384 61.198 19.192 61.198 11.8C61.198 4.408 57.134 0.216 51.598 0.216C46.094 0.216 41.998 4.408 41.998 11.8C41.998 19.192 46.094 23.384 51.598 23.384ZM51.598 19C49.038 19 47.246 16.888 47.246 11.8C47.246 6.712 49.038 4.6 51.598 4.6C54.19 4.6 55.982 6.712 55.982 11.8C55.982 16.888 54.19 19 51.598 19ZM73.3168 23.384C78.8528 23.384 82.9168 19.192 82.9168 11.8C82.9168 4.408 78.8528 0.216 73.3168 0.216C67.8128 0.216 63.7168 4.408 63.7168 11.8C63.7168 19.192 67.8128 23.384 73.3168 23.384ZM73.3168 19C70.7568 19 68.9648 16.888 68.9648 11.8C68.9648 6.712 70.7568 4.6 73.3168 4.6C75.9088 4.6 77.7008 6.712 77.7008 11.8C77.7008 16.888 75.9088 19 73.3168 19ZM101.529 9.848H95.9605V4.408H91.8325V9.848H86.2965V13.752H91.8325V19.192H95.9605V13.752H101.529V9.848Z" fill="#005ECD"/>
</svg>
