<svg width="104" height="30" viewBox="0 0 104 30" fill="none" xmlns="http://www.w3.org/2000/svg">
<path d="M0 0.0429688H10.5125L17.9482 15.6836L25.3412 0.0429688H35.8537V29.9994H27.1787V13.5896L21.1533 27.0935H14.7005L8.67498 13.5896V29.9994H0V0.0429688Z" fill="#005ECD"/>
<path d="M37.7954 0.0429688H48.3934L54.5899 19.7006L60.7435 0.0429688H70.8715L59.4188 29.9994H49.1627L37.7954 0.0429688Z" fill="#F90000"/>
<path d="M82.6016 0.0429688L91.3722 14.3025L81.954 29.9994H70.4305L80.943 14.7862L71.0715 0.0429688H82.6016Z" fill="#FF8A00"/>
<path d="M88.6916 4.30669L93.6076 13.8534L102.994 0.0429688H91.3273L88.6916 4.30669Z" fill="#FF8A00"/>
<path d="M93.599 14.7688L88.5201 24.6446L92.0111 29.9994H103.891L93.599 14.7688Z" fill="#FF8A00"/>
</svg>
