<svg width="70" height="20" viewBox="0 0 70 20" fill="none" xmlns="http://www.w3.org/2000/svg">
<path d="M0 0.0292969H7.00838L11.9655 10.4564L16.8942 0.0292969H23.9026V20.0003H18.1192V9.06042L14.1022 18.0631H9.80034L5.78334 9.06042V20.0003H0V0.0292969Z" fill="black"/>
<path d="M25.197 0.0283203H32.2624L36.3933 13.1334L40.4958 0.0283203H47.2478L39.6126 19.9994H32.7752L25.197 0.0283203Z" fill="black"/>
<path d="M55.0678 0.0283203L60.9148 9.53472L54.6361 19.9994H46.9537L53.962 9.85715L47.381 0.0283203H55.0678Z" fill="black"/>
<path d="M59.1278 2.87081L62.4051 9.23531L68.6625 0.0283203H60.885L59.1278 2.87081Z" fill="black"/>
<path d="M62.3994 9.84557L59.0134 16.4294L61.3408 19.9994H69.2608L62.3994 9.84557Z" fill="black"/>
</svg>
