<svg width="146" height="16" viewBox="0 0 146 16" fill="none" xmlns="http://www.w3.org/2000/svg">
<path d="M6.54443 6H9.54443V9H6.54443V16H3.54443V9H0.544434V6H3.54443V4.745C3.54443 3.556 3.91843 2.054 4.66243 1.233C5.40643 0.41 6.33543 0 7.44843 0H9.54443V3H7.44443C6.94643 3 6.54443 3.402 6.54443 3.899V6Z" fill="#005ECD"/>
<path d="M33.5258 3.87842C32.4379 3.87842 31.3946 4.31059 30.6253 5.07987C29.856 5.84915 29.4238 6.89251 29.4238 7.98044C29.4238 9.06836 29.856 10.1117 30.6253 10.881C31.3946 11.6503 32.4379 12.0825 33.5258 12.0825C34.6138 12.0825 35.6571 11.6503 36.4264 10.881C37.1957 10.1117 37.6279 9.06836 37.6279 7.98044C37.6279 6.89251 37.1957 5.84915 36.4264 5.07987C35.6571 4.31059 34.6138 3.87842 33.5258 3.87842ZM33.5258 10.6444C32.8191 10.6444 32.1412 10.3637 31.6415 9.86391C31.1417 9.36415 30.861 8.68632 30.861 7.97955C30.861 7.27278 31.1417 6.59495 31.6415 6.09519C32.1412 5.59542 32.8191 5.31466 33.5258 5.31466C34.2326 5.31466 34.9104 5.59542 35.4102 6.09519C35.91 6.59495 36.1907 7.27278 36.1907 7.97955C36.1907 8.68632 35.91 9.36415 35.4102 9.86391C34.9104 10.3637 34.2326 10.6444 33.5258 10.6444Z" fill="#005ECD"/>
<path d="M37.7898 4.6841C38.318 4.6841 38.7461 4.25595 38.7461 3.72779C38.7461 3.19964 38.318 2.77148 37.7898 2.77148C37.2617 2.77148 36.8335 3.19964 36.8335 3.72779C36.8335 4.25595 37.2617 4.6841 37.7898 4.6841Z" fill="#005ECD"/>
<path d="M41.0964 2.75538C40.8911 2.22504 40.5772 1.74343 40.175 1.34137C39.7728 0.939308 39.2911 0.625656 38.7607 0.420492C38.14 0.187498 37.4843 0.0615135 36.8214 0.0479041C35.9671 0.0106453 35.6966 0 33.5302 0C31.3639 0 31.0862 -8.92285e-08 30.239 0.0479041C29.5767 0.0608177 28.9215 0.186828 28.3016 0.420492C27.771 0.625417 27.2892 0.938984 26.8869 1.34108C26.4847 1.74317 26.1709 2.2249 25.9658 2.75538C25.7328 3.37601 25.6071 4.03179 25.5941 4.69461C25.556 5.54802 25.5444 5.81858 25.5444 7.98581C25.5444 10.1521 25.5444 10.428 25.5941 11.277C25.6074 11.9406 25.7325 12.5953 25.9658 13.2171C26.1715 13.7474 26.4856 14.2289 26.8879 14.631C27.2903 15.033 27.772 15.3467 28.3025 15.552C28.9212 15.7944 29.5767 15.9294 30.2408 15.9512C31.0951 15.9885 31.3657 16 33.532 16C35.6983 16 35.976 16 36.8232 15.9512C37.486 15.9377 38.1417 15.8121 38.7624 15.5795C39.2927 15.3739 39.7743 15.0599 40.1765 14.6578C40.5786 14.2556 40.8926 13.774 41.0982 13.2437C41.3315 12.6228 41.4566 11.9681 41.4699 11.3045C41.5081 10.4511 41.5196 10.1805 41.5196 8.01331C41.5196 5.84609 41.5196 5.57108 41.4699 4.72211C41.4596 4.04992 41.3332 3.38456 41.0964 2.75538ZM40.0159 11.2114C40.0102 11.7226 39.9169 12.2291 39.74 12.7088C39.6068 13.0538 39.4029 13.367 39.1413 13.6285C38.8797 13.8899 38.5664 14.0936 38.2213 14.2267C37.7469 14.4027 37.2458 14.496 36.7398 14.5026C35.8971 14.5416 35.6593 14.5513 33.4983 14.5513C31.3355 14.5513 31.1146 14.5513 30.2559 14.5026C29.7502 14.4964 29.2493 14.403 28.7753 14.2267C28.4291 14.0945 28.1144 13.8911 27.8517 13.6296C27.589 13.3681 27.3842 13.0544 27.2504 12.7088C27.076 12.2342 26.9827 11.7337 26.9745 11.2282C26.9363 10.3855 26.9274 10.1477 26.9274 7.98669C26.9274 5.8248 26.9274 5.6039 26.9745 4.74429C26.9802 4.23333 27.0735 3.72714 27.2504 3.24773C27.5209 2.54779 28.0754 1.9969 28.7753 1.72899C29.2495 1.55346 29.7503 1.46016 30.2559 1.45309C31.0995 1.41495 31.3364 1.4043 33.4983 1.4043C35.6602 1.4043 35.882 1.4043 36.7398 1.45309C37.2458 1.45918 37.747 1.55251 38.2213 1.72899C38.5663 1.8623 38.8797 2.06627 39.1412 2.32782C39.4028 2.58936 39.6067 2.9027 39.74 3.24773C39.9144 3.72229 40.0077 4.22281 40.0159 4.72832C40.0541 5.57197 40.0638 5.80883 40.0638 7.97073C40.0638 10.1317 40.0638 10.3642 40.0257 11.2122H40.0159V11.2114Z" fill="#005ECD"/>
<path d="M59.9096 3.26461C59.9219 3.14263 59.9051 3.01948 59.8608 2.90518C59.8165 2.79087 59.7458 2.68864 59.6546 2.6068L57.7736 0.340064V0H63.6163L68.1328 9.90436L72.103 0H77.6726V0.339001L76.0626 1.88098C75.9953 1.93346 75.9432 2.00303 75.9118 2.08245C75.8804 2.16188 75.8708 2.24826 75.8841 2.33263V13.6674C75.8706 13.7518 75.88 13.8382 75.9114 13.9177C75.9429 13.9971 75.9951 14.0667 76.0626 14.119L77.6344 15.661V16H69.7321V15.661L71.357 14.0808C71.5185 13.9214 71.5185 13.8735 71.5185 13.6302V4.46759L66.9925 15.9628H66.3814L61.1126 4.46759V12.1711C61.069 12.4952 61.1763 12.8215 61.4048 13.0563L63.5217 15.6249V15.9639H57.5196V15.6249L59.6365 13.0563C59.7479 12.9403 59.8306 12.7998 59.878 12.6461C59.9254 12.4924 59.9362 12.3297 59.9096 12.1711V3.26461Z" fill="#005ECD"/>
<path d="M97.1584 16.0001H93.7298V4.57153H97.1584V16.0001ZM109.73 16.0001H106.301V9.89496C106.301 8.3041 105.734 7.5121 104.611 7.5121C103.721 7.5121 103.156 7.95553 102.873 8.84353V16.0001H99.4441C99.4441 16.0001 99.4898 5.71439 99.4441 4.57153H102.15L102.36 6.85725H102.43C103.133 5.71439 104.257 4.93953 105.797 4.93953C106.969 4.93953 107.916 5.26525 108.64 6.08353C109.368 6.90296 109.73 8.00239 109.73 9.54639V16.0001Z" fill="#005ECD"/>
<path d="M95.444 3.42857C96.4224 3.42857 97.2155 2.66106 97.2155 1.71429C97.2155 0.767512 96.4224 0 95.444 0C94.4657 0 93.6726 0.767512 93.6726 1.71429C93.6726 2.66106 94.4657 3.42857 95.444 3.42857Z" fill="#005ECD"/>
<path d="M143.143 2.53462C144.029 1.9911 144.615 1.24923 144.902 0.305733C144.094 0.743082 143.226 1.06089 142.326 1.24923C141.556 0.420794 140.58 0 139.411 0C138.268 0 137.303 0.401069 136.515 1.18129C136.134 1.55179 135.833 1.99608 135.631 2.48693C135.428 2.97779 135.328 3.50487 135.336 4.03589C135.336 4.3745 135.378 4.67694 135.464 4.93336C132.093 4.8183 129.303 3.42004 127.105 0.728717C126.732 1.3873 126.546 2.05794 126.546 2.75159C126.546 4.17725 127.148 5.30703 128.349 6.13657C127.664 6.07849 127.06 5.90535 126.546 5.62153C126.546 6.63955 126.845 7.4899 127.445 8.23834C128.027 8.96765 128.848 9.46852 129.762 9.65304C129.421 9.7407 129.06 9.78234 128.69 9.78234C128.348 9.78234 128.106 9.75385 127.962 9.69139C128.214 10.5209 128.69 11.1938 129.377 11.7088C130.056 12.2245 130.882 12.5098 131.735 12.523C130.275 13.6681 128.606 14.2346 126.718 14.2346C126.256 14.2346 125.928 14.2281 125.73 14.193C127.589 15.4006 129.659 16 131.95 16C134.294 16 136.365 15.4061 138.167 14.2182C139.97 13.0369 141.3 11.5795 142.155 9.86343C143 8.20296 143.44 6.36594 143.439 4.50271V3.98986C144.227 3.409 144.909 2.69693 145.456 1.8848C144.718 2.20463 143.94 2.42321 143.143 2.53462Z" fill="#005ECD"/>
</svg>
