<svg width="200" height="31" viewBox="0 0 200 31" fill="none" xmlns="http://www.w3.org/2000/svg">
<path d="M19.52 20.44C19.52 15.928 15.616 14.744 12.064 13.912V8.472C13.664 8.664 15.328 9.208 16.96 10.136L18.56 6.2C16.8 5.08 14.464 4.44 12.064 4.248V0.759998H8.864V4.312C3.808 4.888 1.344 7.8 1.344 11.192C1.344 15.768 5.312 16.952 8.864 17.816V23.16C6.56 22.936 4.256 22.072 2.656 20.888L0.896 24.792C2.656 26.168 5.696 27.16 8.864 27.352V30.84H12.064V27.256C17.088 26.648 19.52 23.768 19.52 20.44ZM6.496 10.936C6.496 9.88 7.168 8.952 8.864 8.568V13.112C7.456 12.664 6.496 12.056 6.496 10.936ZM12.064 23.032V18.616C13.44 19.096 14.368 19.704 14.368 20.824C14.368 21.848 13.664 22.68 12.064 23.032ZM28.7583 22.776L33.9103 17.912C37.0463 15 37.6543 13.016 37.6543 10.84C37.6543 6.776 34.3263 4.216 29.3343 4.216C25.3023 4.216 22.1663 5.848 20.4383 8.376L24.2143 10.808C25.3023 9.304 26.9343 8.568 28.8542 8.568C31.2223 8.568 32.4383 9.592 32.4383 11.352C32.4383 12.44 32.0863 13.592 30.1023 15.48L21.4622 23.64V27H38.3903V22.776H28.7583ZM43.7858 27.256C45.5138 27.256 46.8898 25.944 46.8898 24.12C46.8898 22.264 45.5138 21.048 43.7858 21.048C42.0578 21.048 40.6818 22.264 40.6818 24.12C40.6818 25.944 42.0578 27.256 43.7858 27.256ZM59.9933 13.72L65.0493 7.96V4.6H49.3693V8.76H58.9053L54.2973 13.976V17.4H56.6653C59.6093 17.4 60.8573 18.456 60.8573 20.152C60.8573 21.976 59.2573 23.032 56.6653 23.032C54.3293 23.032 51.9613 22.296 50.2653 21.016L48.2492 24.984C50.4253 26.52 53.6573 27.384 56.7933 27.384C63.1613 27.384 66.0733 23.928 66.0733 20.152C66.0733 16.856 64.0253 14.36 59.9933 13.72ZM91.5708 9.528C88.9788 9.528 86.7388 10.584 85.3628 12.344C84.1468 10.456 82.0988 9.528 79.6988 9.528C77.4908 9.528 75.5708 10.296 74.2908 11.768V9.784H69.5228V27H74.5148V18.36C74.5148 15.288 76.0828 13.848 78.2908 13.848C80.3708 13.848 81.5548 15.128 81.5548 17.912V27H86.5468V18.36C86.5468 15.288 88.1148 13.848 90.3548 13.848C92.3708 13.848 93.6188 15.128 93.6188 17.912V27H98.6108V17.144C98.6108 11.896 95.6668 9.528 91.5708 9.528ZM105.581 7.384C107.437 7.384 108.685 6.168 108.685 4.504C108.685 2.968 107.437 1.816 105.581 1.816C103.725 1.816 102.477 3.032 102.477 4.6C102.477 6.168 103.725 7.384 105.581 7.384ZM103.085 27H108.077V9.784H103.085V27ZM112.71 27H117.702V3.256H112.71V27ZM122.335 27H127.327V3.256H122.335V27ZM134.456 7.384C136.312 7.384 137.56 6.168 137.56 4.504C137.56 2.968 136.312 1.816 134.456 1.816C132.6 1.816 131.352 3.032 131.352 4.6C131.352 6.168 132.6 7.384 134.456 7.384ZM131.96 27H136.952V9.784H131.96V27ZM149.777 27.256C155.249 27.256 159.217 23.576 159.217 18.392C159.217 13.208 155.249 9.528 149.777 9.528C144.305 9.528 140.305 13.208 140.305 18.392C140.305 23.576 144.305 27.256 149.777 27.256ZM149.777 23.16C147.281 23.16 145.361 21.368 145.361 18.392C145.361 15.416 147.281 13.624 149.777 13.624C152.273 13.624 154.161 15.416 154.161 18.392C154.161 21.368 152.273 23.16 149.777 23.16ZM173.018 9.528C170.682 9.528 168.666 10.328 167.322 11.8V9.784H162.554V27H167.546V18.488C167.546 15.32 169.274 13.848 171.674 13.848C173.882 13.848 175.162 15.128 175.162 17.912V27H180.154V17.144C180.154 11.896 177.082 9.528 173.018 9.528ZM199.591 13.848H194.023V8.408H189.895V13.848H184.359V17.752H189.895V23.192H194.023V17.752H199.591V13.848Z" fill="#005ECD"/>
</svg>
