<svg width="50" height="50" viewBox="0 0 50 50" fill="none" xmlns="http://www.w3.org/2000/svg">
<path d="M7.91175 42.0884C5.66434 39.8468 3.88204 37.1832 2.66729 34.2506C1.45255 31.3181 0.829286 28.1744 0.833333 25.0002C0.833333 11.6529 11.6527 0.833496 25 0.833496C38.3472 0.833496 49.1667 11.6529 49.1667 25.0002C49.1667 38.3474 38.3472 49.1668 25 49.1668H0.833333L7.91175 42.0884ZM15.3333 27.4168C15.3333 29.9806 16.3518 32.4393 18.1646 34.2522C19.9775 36.065 22.4362 37.0835 25 37.0835C27.5638 37.0835 30.0225 36.065 31.8354 34.2522C33.6482 32.4393 34.6667 29.9806 34.6667 27.4168H15.3333Z" fill="#005ECD"/>
</svg>
